# xmcd CD database file
#
# Track frame offsets:
#	182
#	27752
#	62042
#	110642
#	133795
#	165887
#	194447
#	229337
#
# Disc length: 3437 seconds
#
# Revision: 0
# Processed by: cddbd v1.5PL3 Copyright (c) Steve Scherf et al.
# Submitted via: CDex 1.51
#
DISCID=680d6b08
DTITLE=Rob Frayne Chris McCann Quartet - Bay d'Espoir
DYEAR=1991
DGENRE=Jazz
TTITLE0=Turquoise is better
TTITLE1=Ruby
TTITLE2=Mole
TTITLE3=Green Chimneys
TTITLE4=Sigh
TTITLE5=Eoey
TTITLE6=St. Thomas
TTITLE7=Cameroon
EXTD=YEAR: 1991
EXTT0=
EXTT1=
EXTT2=
EXTT3=
EXTT4=
EXTT5=
EXTT6=
EXTT7=
PLAYORDER=
